# Blender v3.1.2 OBJ File: 'road.blend'
# www.blender.org
mtllib road.mtl
o road
v 2.077445 0.054787 -4.365420
v -2.085755 0.054787 -4.365421
v -2.085756 0.054785 4.365419
v 2.077445 0.054785 4.365420
v 2.077445 0.291940 -4.365418
v 2.077444 0.291938 4.365422
v -2.085756 0.291938 4.365418
v -2.085756 0.291940 -4.365420
vt 0.921300 1.000000
vt 0.460600 1.000000
vt 0.460600 0.000000
vt 0.921300 0.000000
vt 0.000000 1.000000
vt 0.000000 0.000000
vt 0.460600 0.000000
vt 0.460600 1.000000
vt 0.947500 1.000000
vt 0.947500 0.000000
vt 0.973800 0.000000
vt 0.973800 1.000000
vt 0.973800 0.953700
vt 0.973800 0.476800
vt 1.000000 0.476800
vt 1.000000 0.953700
vt 0.947500 0.000000
vt 0.947500 1.000000
vt 0.921300 1.000000
vt 0.921300 0.000000
vt 0.973800 0.476800
vt 0.973800 0.000000
vt 1.000000 0.000000
vt 1.000000 0.476800
vn -0.0000 1.0000 0.0000
vn 0.0000 -1.0000 -0.0000
vn -1.0000 -0.0000 -0.0000
vn 0.0000 0.0000 -1.0000
vn 1.0000 0.0000 0.0000
vn -0.0000 -0.0000 1.0000
usemtl road
s 1
f 1/1/1 2/2/1 3/3/1 4/4/1
f 5/5/2 6/6/2 7/7/2 8/8/2
f 1/9/3 4/10/3 6/11/3 5/12/3
f 4/13/4 3/14/4 7/15/4 6/16/4
f 3/17/5 2/18/5 8/19/5 7/20/5
f 5/21/6 8/22/6 2/23/6 1/24/6
